#tb 0: 1/1000
0,          0,          0,        0,   276480, 0x5f7a0d4f
0,         83,         83,        0,   276480, 0x5f7a0d4f
0,        124,        124,        0,   276480, 0x5f7a0d4f
0,        166,        166,        0,   276480, 0x5f7a0d4f
0,        208,        208,        0,   276480, 0x5f7a0d4f
0,        250,        250,        0,   276480, 0x5f7a0d4f
0,        291,        291,        0,   276480, 0x5f7a0d4f
0,        333,        333,        0,   276480, 0x5f7a0d4f
0,        375,        375,        0,   276480, 0x5f7a0d4f
0,        416,        416,        0,   276480, 0x5f7a0d4f
0,        458,        458,        0,   276480, 0x5f7a0d4f
0,        500,        500,        0,   276480, 0x5f7a0d4f
0,        542,        542,        0,   276480, 0x5f7a0d4f
0,        583,        583,        0,   276480, 0x5f7a0d4f
0,        625,        625,        0,   276480, 0x5f7a0d4f
0,        667,        667,        0,   276480, 0x5f7a0d4f
0,        708,        708,        0,   276480, 0x5f7a0d4f
0,        750,        750,        0,   276480, 0x5f7a0d4f
0,        792,        792,        0,   276480, 0x5f7a0d4f
0,        833,        833,        0,   276480, 0x5f7a0d4f
0,        875,        875,        0,   276480, 0x5f7a0d4f
0,        917,        917,        0,   276480, 0x5f7a0d4f
0,        959,        959,        0,   276480, 0x5f7a0d4f
0,       1000,       1000,        0,   276480, 0x5f7a0d4f
0,       1042,       1042,        0,   276480, 0x5f7a0d4f
0,       1084,       1084,        0,   276480, 0x5f7a0d4f
0,       1125,       1125,        0,   276480, 0x5f7a0d4f
0,       1167,       1167,        0,   276480, 0x5f7a0d4f
0,       1209,       1209,        0,   276480, 0x5f7a0d4f
0,       1251,       1251,        0,   276480, 0x5f7a0d4f
0,       1292,       1292,        0,   276480, 0x5f7a0d4f
0,       1334,       1334,        0,   276480, 0x5f7a0d4f
0,       1376,       1376,        0,   276480, 0x5f7a0d4f
0,       1417,       1417,        0,   276480, 0x75641594
0,       1459,       1459,        0,   276480, 0x32ee3526
0,       1501,       1501,        0,   276480, 0xcb53479a
0,       1543,       1543,        0,   276480, 0x7ca9658e
0,       1584,       1584,        0,   276480, 0x5ce39368
0,       1626,       1626,        0,   276480, 0x4ec1e418
0,       1668,       1668,        0,   276480, 0xb3790499
0,       1709,       1709,        0,   276480, 0xa9f1506f
0,       1751,       1751,        0,   276480, 0x85cbc3b5
0,       1793,       1793,        0,   276480, 0x377c7b46
0,       1834,       1834,        0,   276480, 0x1a61d8db
0,       1876,       1876,        0,   276480, 0xe1de7f0a
0,       1918,       1918,        0,   276480, 0x756a4a2e
0,       1960,       1960,        0,   276480, 0xcb379547
0,       2001,       2001,        0,   276480, 0xbae14484
0,       2043,       2043,        0,   276480, 0x8e12331c
0,       2085,       2085,        0,   276480, 0x99c085be
0,       2126,       2126,        0,   276480, 0xe479ffed
0,       2168,       2168,        0,   276480, 0x99c82949
0,       2210,       2210,        0,   276480, 0xac7672dd
0,       2252,       2252,        0,   276480, 0x1e4fae19
0,       2293,       2293,        0,   276480, 0x776412ef
0,       2335,       2335,        0,   276480, 0x7d9b579f
0,       2377,       2377,        0,   276480, 0x1cd1ab29
0,       2418,       2418,        0,   276480, 0x58ce0f38
0,       2460,       2460,        0,   276480, 0x5ab69b27
0,       2502,       2502,        0,   276480, 0x0afad610
0,       2544,       2544,        0,   276480, 0x9eca3f11
0,       2585,       2585,        0,   276480, 0xc3db9706
0,       2627,       2627,        0,   276480, 0xc9c57884
0,       2669,       2669,        0,   276480, 0xd9fbb2cf
0,       2710,       2710,        0,   276480, 0xdc07f3c9
0,       2752,       2752,        0,   276480, 0x000b5269
0,       2794,       2794,        0,   276480, 0x27ff7a5d
0,       2835,       2835,        0,   276480, 0xd92e2017
0,       2877,       2877,        0,   276480, 0x18d4b27d
0,       2919,       2919,        0,   276480, 0x70647530
0,       2961,       2961,        0,   276480, 0x97612c4b
0,       3002,       3002,        0,   276480, 0xc9d4ac78
0,       3044,       3044,        0,   276480, 0x4ec4d57f
0,       3086,       3086,        0,   276480, 0xdf4e04d7
0,       3127,       3127,        0,   276480, 0xbd98f57c
0,       3169,       3169,        0,   276480, 0x7247ea3e
0,       3211,       3211,        0,   276480, 0xa5d670ec
0,       3253,       3253,        0,   276480, 0x5163b29b
0,       3294,       3294,        0,   276480, 0x99170e64
0,       3336,       3336,        0,   276480, 0x37f4c0b0
0,       3378,       3378,        0,   276480, 0x7a4f2561
0,       3419,       3419,        0,   276480, 0x8a4e991f
0,       3461,       3461,        0,   276480, 0x6a45425f
0,       3503,       3503,        0,   276480, 0x1f0e2bb6
0,       3545,       3545,        0,   276480, 0xd75482c6
0,       3586,       3586,        0,   276480, 0x7bf6b1ef
0,       3628,       3628,        0,   276480, 0x6de1e34b
0,       3670,       3670,        0,   276480, 0x4526c89b
0,       3711,       3711,        0,   276480, 0xf964e18e
0,       3753,       3753,        0,   276480, 0xdcaaa99a
0,       3795,       3795,        0,   276480, 0xd1e98808
0,       3836,       3836,        0,   276480, 0x556b2365
0,       3878,       3878,        0,   276480, 0x0cf65540
0,       3920,       3920,        0,   276480, 0x6e2d524e
0,       3962,       3962,        0,   276480, 0x22c50a3d
0,       4003,       4003,        0,   276480, 0x293f19af
0,       4045,       4045,        0,   276480, 0xf4b1c461
0,       4087,       4087,        0,   276480, 0x62b76407
0,       4128,       4128,        0,   276480, 0x51e9b3eb
0,       4170,       4170,        0,   276480, 0x7b910bc7
0,       4212,       4212,        0,   276480, 0x6dd14ca6
0,       4254,       4254,        0,   276480, 0x441f7afd
0,       4295,       4295,        0,   276480, 0xfb01efc6
0,       4337,       4337,        0,   276480, 0x4f73ccea
0,       4379,       4379,        0,   276480, 0x5ac8e06f
0,       4420,       4420,        0,   276480, 0x294bb441
0,       4462,       4462,        0,   276480, 0xe04ac45e
0,       4504,       4504,        0,   276480, 0xa7a38d41
0,       4546,       4546,        0,   276480, 0xf688a3ed
0,       4587,       4587,        0,   276480, 0x58f275ea
0,       4629,       4629,        0,   276480, 0xf0b3b71b
0,       4671,       4671,        0,   276480, 0x3ce773bf
0,       4712,       4712,        0,   276480, 0x01840548
0,       4754,       4754,        0,   276480, 0x674e34e4
0,       4796,       4796,        0,   276480, 0x41dda2d9
0,       4837,       4837,        0,   276480, 0xc5b60838
0,       4879,       4879,        0,   276480, 0x9b209f41
0,       4921,       4921,        0,   276480, 0xf46ba7fb
0,       4963,       4963,        0,   276480, 0x28b54815
0,       5004,       5004,        0,   276480, 0xb605a933
0,       5046,       5046,        0,   276480, 0x34484aff
0,       5088,       5088,        0,   276480, 0xaf2b5d89
0,       5129,       5129,        0,   276480, 0x8facba58
0,       5171,       5171,        0,   276480, 0xbbe3e99f
0,       5213,       5213,        0,   276480, 0x02162c7c
0,       5255,       5255,        0,   276480, 0x28a63236
0,       5296,       5296,        0,   276480, 0x1ad43fd7
0,       5338,       5338,        0,   276480, 0xe37883e5
0,       5380,       5380,        0,   276480, 0x2b8a89c5
0,       5421,       5421,        0,   276480, 0x71507bd2
0,       5463,       5463,        0,   276480, 0x35626022
0,       5505,       5505,        0,   276480, 0x461fc3e7
0,       5547,       5547,        0,   276480, 0xce5af1ec
0,       5588,       5588,        0,   276480, 0x7c1139b3
0,       5630,       5630,        0,   276480, 0x7fd73a99
0,       5672,       5672,        0,   276480, 0x4ae4c3a6
0,       5713,       5713,        0,   276480, 0xcb60725a
0,       5755,       5755,        0,   276480, 0xb52e1aa2
0,       5797,       5797,        0,   276480, 0xd6f82cae
0,       5838,       5838,        0,   276480, 0x6310e665
0,       5880,       5880,        0,   276480, 0xfa88a483
0,       5922,       5922,        0,   276480, 0xf88f75d4
0,       5964,       5964,        0,   276480, 0x04a8e3ee
0,       6005,       6005,        0,   276480, 0x54766a12
0,       6047,       6047,        0,   276480, 0x0b41f0d7
0,       6089,       6089,        0,   276480, 0xa29f5b01
0,       6130,       6130,        0,   276480, 0x754ceaf5
0,       6172,       6172,        0,   276480, 0x150c0423
0,       6214,       6214,        0,   276480, 0xde084059
0,       6256,       6256,        0,   276480, 0x5a38b4af
0,       6297,       6297,        0,   276480, 0xfcebc261
0,       6339,       6339,        0,   276480, 0x0eb9770d
0,       6381,       6381,        0,   276480, 0x046394ae
0,       6422,       6422,        0,   276480, 0x3d3ca985
0,       6464,       6464,        0,   276480, 0x94a03c75
0,       6506,       6506,        0,   276480, 0x800eea2d
0,       6548,       6548,        0,   276480, 0x6a841f41
0,       6589,       6589,        0,   276480, 0x2f98911c
0,       6631,       6631,        0,   276480, 0x923b9937
0,       6673,       6673,        0,   276480, 0xe82f8e0f
0,       6714,       6714,        0,   276480, 0xee82d657
0,       6756,       6756,        0,   276480, 0xefab7ffd
0,       6798,       6798,        0,   276480, 0x6b9fbc80
0,       6839,       6839,        0,   276480, 0x4a1ada47
0,       6881,       6881,        0,   276480, 0x6d4b49d7
0,       6923,       6923,        0,   276480, 0xe4bdbd1e
0,       6965,       6965,        0,   276480, 0x225a56c0
0,       7006,       7006,        0,   276480, 0xd4adadad
0,       7048,       7048,        0,   276480, 0xff4e1a8c
0,       7090,       7090,        0,   276480, 0xf58b1b7c
0,       7131,       7131,        0,   276480, 0xbaffcdcc
0,       7173,       7173,        0,   276480, 0x374f88f0
0,       7215,       7215,        0,   276480, 0x3d861ae6
0,       7257,       7257,        0,   276480, 0xeb6eb88f
0,       7298,       7298,        0,   276480, 0xdb753d35
0,       7340,       7340,        0,   276480, 0x9aa543af
0,       7382,       7382,        0,   276480, 0xb24c8016
0,       7423,       7423,        0,   276480, 0xea80a82e
0,       7465,       7465,        0,   276480, 0x2aae902a
0,       7507,       7507,        0,   276480, 0x5bba3cfb
0,       7549,       7549,        0,   276480, 0x5c6e97a9
0,       7590,       7590,        0,   276480, 0x9b9ee961
0,       7632,       7632,        0,   276480, 0xaa12b6fd
0,       7674,       7674,        0,   276480, 0xe9d2439f
0,       7715,       7715,        0,   276480, 0xbf09053c
0,       7757,       7757,        0,   276480, 0x50c31e73
0,       7799,       7799,        0,   276480, 0xdd9fb89f
0,       7840,       7840,        0,   276480, 0x3e4e5aec
0,       7882,       7882,        0,   276480, 0x0b752d28
0,       7924,       7924,        0,   276480, 0xaf82399a
0,       7966,       7966,        0,   276480, 0x7ce5f23c
0,       8007,       8007,        0,   276480, 0xad135d0f
0,       8049,       8049,        0,   276480, 0x55dadd30
0,       8091,       8091,        0,   276480, 0x5aaa7519
0,       8132,       8132,        0,   276480, 0xe45a5599
0,       8174,       8174,        0,   276480, 0xc8e89913
0,       8216,       8216,        0,   276480, 0x2f447fd3
0,       8258,       8258,        0,   276480, 0x704411fb
0,       8299,       8299,        0,   276480, 0x9d7430a1
0,       8341,       8341,        0,   276480, 0x24dd5fd3
0,       8383,       8383,        0,   276480, 0x51cb657c
0,       8424,       8424,        0,   276480, 0x2c230702
0,       8466,       8466,        0,   276480, 0x4a4f76cd
0,       8508,       8508,        0,   276480, 0xdcd71e88
0,       8550,       8550,        0,   276480, 0x87160f99
0,       8591,       8591,        0,   276480, 0x27f54854
0,       8633,       8633,        0,   276480, 0x694d76e3
0,       8675,       8675,        0,   276480, 0xcbe93c19
0,       8716,       8716,        0,   276480, 0x50742e1b
0,       8758,       8758,        0,   276480, 0x525463e2
0,       8800,       8800,        0,   276480, 0x819898f9
0,       8841,       8841,        0,   276480, 0x08fac755
0,       8883,       8883,        0,   276480, 0x35c46927
0,       8925,       8925,        0,   276480, 0xeeed00fc
0,       8967,       8967,        0,   276480, 0xb6f99ee3
0,       9008,       9008,        0,   276480, 0xd87f4c73
0,       9050,       9050,        0,   276480, 0xde97d9fd
0,       9092,       9092,        0,   276480, 0xefc83107
0,       9133,       9133,        0,   276480, 0xbb22e024
0,       9175,       9175,        0,   276480, 0x53a7cfcb
0,       9217,       9217,        0,   276480, 0xbe1fbb19
0,       9259,       9259,        0,   276480, 0x300f922a
0,       9300,       9300,        0,   276480, 0x826fc3bd
0,       9342,       9342,        0,   276480, 0x679aa57a
0,       9384,       9384,        0,   276480, 0x5497097b
0,       9425,       9425,        0,   276480, 0x679a53f8
0,       9467,       9467,        0,   276480, 0x976c9e93
0,       9509,       9509,        0,   276480, 0xe80f87f2
0,       9551,       9551,        0,   276480, 0xdc2d7c6c
0,       9592,       9592,        0,   276480, 0xb194656e
0,       9634,       9634,        0,   276480, 0xf002c5ca
0,       9676,       9676,        0,   276480, 0x43fc1c64
0,       9717,       9717,        0,   276480, 0xf62d8581
0,       9759,       9759,        0,   276480, 0xb243dda5
0,       9801,       9801,        0,   276480, 0x1700efbb
0,       9842,       9842,        0,   276480, 0x9ebe6ba2
0,       9884,       9884,        0,   276480, 0x8f316c66
0,       9926,       9926,        0,   276480, 0x6348ecf5
0,       9968,       9968,        0,   276480, 0x34b5b78a
